<svg id="Group_95" data-name="Group 95" xmlns="http://www.w3.org/2000/svg" width="73.755" height="73.755" viewBox="0 0 73.755 73.755">
  <path id="Path_27" data-name="Path 27" d="M36.877,0A36.877,36.877,0,1,1,0,36.877,36.877,36.877,0,0,1,36.877,0Z" transform="translate(0)" fill="#0354f5"/>
  <g id="chat-square-text" transform="translate(19.345 23.559)">
    <path id="Path_22" data-name="Path 22" d="M30.945,2.21H4.421a2.21,2.21,0,0,0-2.21,2.21V22.1a2.21,2.21,0,0,0,2.21,2.21H9.947a4.421,4.421,0,0,1,3.537,1.768l4.2,5.6,4.2-5.6a4.421,4.421,0,0,1,3.537-1.768h5.526a2.21,2.21,0,0,0,2.21-2.21V4.421A2.21,2.21,0,0,0,30.945,2.21ZM4.421,0A4.421,4.421,0,0,0,0,4.421V22.1a4.421,4.421,0,0,0,4.421,4.421H9.947a2.21,2.21,0,0,1,1.768.884l4.2,5.6a2.21,2.21,0,0,0,3.537,0l4.2-5.6a2.21,2.21,0,0,1,1.768-.884h5.526A4.421,4.421,0,0,0,35.366,22.1V4.421A4.421,4.421,0,0,0,30.945,0Z" transform="translate(0)" fill="#fff" stroke="#fff" stroke-width="1" fill-rule="evenodd"/>
    <path id="Path_23" data-name="Path 23" d="M6.75,7.855A1.105,1.105,0,0,1,7.855,6.75H27.749a1.105,1.105,0,1,1,0,2.21H7.855A1.105,1.105,0,0,1,6.75,7.855Zm0,5.526a1.105,1.105,0,0,1,1.105-1.105H27.749a1.105,1.105,0,1,1,0,2.21H7.855A1.105,1.105,0,0,1,6.75,13.381Zm0,5.526A1.105,1.105,0,0,1,7.855,17.8H18.907a1.105,1.105,0,0,1,0,2.21H7.855A1.105,1.105,0,0,1,6.75,18.907Z" transform="translate(-0.119 -0.119)" fill="#fff" stroke="#fff" stroke-width="1" fill-rule="evenodd"/>
  </g>
</svg>
